<svg width="59" height="59" viewBox="0 0 59 59" fill="none" xmlns="http://www.w3.org/2000/svg">
<path fill-rule="evenodd" clip-rule="evenodd" d="M3.6875 29.5C3.6875 36.3459 6.40702 42.9114 11.2478 47.7522C16.0886 52.593 22.6541 55.3125 29.5 55.3125C36.3459 55.3125 42.9114 52.593 47.7522 47.7522C52.593 42.9114 55.3125 36.3459 55.3125 29.5C55.3125 22.6541 52.593 16.0886 47.7522 11.2478C42.9114 6.40702 36.3459 3.6875 29.5 3.6875C22.6541 3.6875 16.0886 6.40702 11.2478 11.2478C6.40702 16.0886 3.6875 22.6541 3.6875 29.5ZM59 29.5C59 37.3239 55.892 44.8273 50.3596 50.3596C44.8273 55.892 37.3239 59 29.5 59C21.6761 59 14.1727 55.892 8.64035 50.3596C3.10803 44.8273 0 37.3239 0 29.5C0 21.6761 3.10803 14.1727 8.64035 8.64035C14.1727 3.10803 21.6761 0 29.5 0C37.3239 0 44.8273 3.10803 50.3596 8.64035C55.892 14.1727 59 21.6761 59 29.5ZM31.3438 16.5938C31.3438 16.1048 31.1495 15.6358 30.8037 15.29C30.458 14.9443 29.989 14.75 29.5 14.75C29.011 14.75 28.542 14.9443 28.1963 15.29C27.8505 15.6358 27.6562 16.1048 27.6562 16.5938V37.9554L19.7429 30.0384C19.3967 29.6922 18.9271 29.4977 18.4375 29.4977C17.9479 29.4977 17.4783 29.6922 17.1321 30.0384C16.7859 30.3846 16.5914 30.8541 16.5914 31.3438C16.5914 31.8334 16.7859 32.3029 17.1321 32.6491L28.1946 43.7116C28.3659 43.8833 28.5694 44.0196 28.7934 44.1125C29.0173 44.2055 29.2575 44.2533 29.5 44.2533C29.7425 44.2533 29.9827 44.2055 30.2066 44.1125C30.4306 44.0196 30.6341 43.8833 30.8054 43.7116L41.8679 32.6491C42.2141 32.3029 42.4086 31.8334 42.4086 31.3438C42.4086 30.8541 42.2141 30.3846 41.8679 30.0384C41.5217 29.6922 41.0521 29.4977 40.5625 29.4977C40.0729 29.4977 39.6033 29.6922 39.2571 30.0384L31.3438 37.9554V16.5938Z" fill="#E3000B"/>
</svg>
