<svg width="14" height="22" viewBox="0 0 14 22" fill="none" xmlns="http://www.w3.org/2000/svg">
<path d="M6.96301 11.1264C10.1541 11.1264 12.8133 8.59771 12.8133 5.56323C12.8133 2.52875 10.1541 0 6.96301 0C3.77191 0 1.11266 2.52875 1.11266 5.56323C1.11266 8.59771 3.77191 11.1264 6.96301 11.1264ZM6.96301 2.78162C8.55855 2.78162 9.88818 4.04599 9.88818 5.56323C9.88818 7.08047 8.55855 8.34483 6.96301 8.34483C5.36746 8.34483 4.03783 7.08047 4.03783 5.56323C4.03783 4.04599 5.36746 2.78162 6.96301 2.78162ZM13.7441 11.8851C13.4782 11.2529 12.5474 10.7471 11.2178 11.6322C9.62225 12.8966 6.96301 12.8966 6.96301 12.8966C6.96301 12.8966 4.30376 12.8966 2.70821 11.6322C1.51155 10.7471 0.580811 11.2529 0.181924 11.8851C-0.349926 13.023 0.314884 13.5287 1.77747 14.4138C2.97413 15.1724 4.70264 15.4253 5.8993 15.5517L4.96857 16.4368C3.63895 17.7011 2.44228 18.8391 1.51155 19.7241C0.979698 20.2299 0.979698 20.9885 1.51155 21.4942L1.64451 21.6207C2.17636 22.1264 2.97413 22.1264 3.50598 21.6207L6.96301 18.3333C8.29263 19.5977 9.48929 20.7356 10.42 21.6207C10.9519 22.1264 11.7497 22.1264 12.2815 21.6207L12.4145 21.4942C12.9463 20.9885 12.9463 20.2299 12.4145 19.7241L8.95744 16.4368L8.0267 15.5517C9.0904 15.4253 10.8189 15.1724 12.1485 14.4138C13.7441 13.5287 14.4089 12.8966 13.7441 11.8851Z" fill="#E3000B"/>
</svg>
