<svg width="20" height="16" viewBox="0 0 20 16" fill="none" xmlns="http://www.w3.org/2000/svg">
<path d="M19.7645 1.87946C19.0716 2.20583 18.2632 2.42341 17.4548 2.42341C18.2632 1.98825 18.9561 1.22671 19.1871 0.356386C18.3787 0.791547 17.5703 1.11792 16.6464 1.22671C15.9535 0.46518 14.9141 0.0300293 13.7593 0.0300293C11.5651 0.0300293 9.71732 1.66188 9.71732 3.83768C9.71732 4.16405 9.71732 4.38162 9.8328 4.70799C6.48374 4.5992 3.59662 3.07615 1.63338 0.791557C1.28693 1.33551 1.05596 1.98825 1.05596 2.64099C1.05596 3.94647 1.74887 5.14315 2.78823 5.79589C2.09532 5.79589 1.5179 5.57832 0.940475 5.36074C0.940475 7.21017 2.32629 8.73323 4.17405 9.0596C3.82759 9.16839 3.48114 9.16839 3.13469 9.16839C2.90372 9.16839 2.67275 9.16839 2.32629 9.0596C2.78823 10.5827 4.28953 11.6706 6.02181 11.6706C4.63599 12.6497 2.90371 13.3024 1.05596 13.3024C0.709503 13.3024 0.36305 13.3024 0.13208 13.3024C1.86435 14.3903 3.94308 15.0431 6.25277 15.0431C13.6438 15.0431 17.5703 9.27719 17.5703 4.38163C17.5703 4.16405 17.5703 4.05525 17.5703 3.94646C18.6096 3.29372 19.1871 2.64099 19.7645 1.87946Z" fill="#E3000B"/>
</svg>
