<svg width="14" height="15" viewBox="0 0 14 15" fill="none" xmlns="http://www.w3.org/2000/svg">
<path d="M12.6939 8.47352C12.1501 7.92972 11.7151 7.49468 10.6275 7.38592V7.27716C11.3888 6.95088 11.9326 6.6246 12.2589 6.0808C12.6939 5.537 12.8027 4.9932 12.8027 4.23188C12.8027 3.68808 12.6939 3.14429 12.3676 2.70925C12.0414 2.27421 11.6063 1.83917 11.0625 1.62165C10.5187 1.40413 9.97493 1.18661 9.32237 1.07785C8.77857 0.969086 7.47345 0.969086 6.16833 0.969086H0.404053V14.9991H7.14717C8.23477 14.9991 9.21361 14.8904 9.97493 14.7816C10.7362 14.5641 11.3888 14.3466 11.9326 13.9115C12.4764 13.5852 12.9114 13.1502 13.129 12.6064C13.4552 12.0626 13.564 11.5188 13.564 10.7575C13.564 9.77864 13.2377 9.01732 12.6939 8.47352ZM4.53693 3.68808H6.27709C6.82089 3.68808 7.36469 3.79685 7.79973 3.90561C8.23477 4.12313 8.45229 4.44941 8.45229 5.10197C8.45229 5.64577 8.23477 5.97205 7.90849 6.18957C7.58221 6.40708 7.14717 6.51584 6.60337 6.51584H4.53693V3.68808ZM8.12601 11.9538C7.79973 12.0626 7.36469 12.1714 6.82089 12.1714H4.53693V8.7998H6.92965C7.47345 8.7998 7.90849 8.90856 8.12601 9.01732C8.66981 9.23484 8.88733 9.66988 8.88733 10.3224C8.99609 11.1925 8.66981 11.7363 8.12601 11.9538Z" fill="#E3000B"/>
</svg>
